:SAMPLES-PER-SECOND 30
:FULLY-SPECIFIED
:DEGREES
354
root  34.88606731 36.51904309 -14.80886354 8.788166046 -7.149008274 3.594424009
lowerback  -8.494830132 -1.006639957 -0.7203605175
upperback  -4.027860165 -0.8381999731 -2.969880104
thorax  0.5605700016 -0.2621259987 -2.733200073
lowerneck  -13.21399975 -7.172579765 -6.062250137
upperneck  21.93969917 -9.7957201 7.709740162
head  9.829669952 -3.922469854 2.492320061
lclavicle  0 -4.497500157e-015 -2.743230041e-014
lhumerus  -48.25059891 29.23489952 64.40419769
lradius  0.007069340441 -6.507048965e-006 30.61009979
lwrist  4.824992743e-007 -3.790274832e-007 -27.60870171
lhand  -4.405300586e-031 -36.72040176 -10.72439957
lfingers  90 7.125020027 -90
lthumb  94.74225044 -25.56571091 100.8814038
rclavicle  0 -4.497500157e-015 -2.743230041e-014
rhumerus  -55.10430145 -35.74209976 -49.34460068
rradius  -5.16745672e-007 2.214343908e-008 57.59569931
rwrist  -2.867388866e-005 0.0111028729 -164.1329956
rhand  -1.775242907e-031 5.986219883 -7.881830215
rfingers  -90 -7.125020027 -90
rthumb  -84.88329923 -8.341505645 -58.31643225
rfemur  -12.9492197 16.13134384 12.34424782
rtibia  -0.9822734594 -1.506131411 20.87627983
rfoot  0.5372715592 -22.9317131 -34.2689209
rtoes  4.099939364 19.59211694 -102.066185
lfemur  -8.482543945 -16.197258 -20.51149559
ltibia  2.162948847 -1.396626949 15.16998482
lfoot  0.8198920488 -22.93397141 38.07552719
ltoes  -8.506763157 -18.16811184 -115.6267749
355
root  34.88637969 36.51940353 -14.80694268 8.796628952 -7.121080875 3.59804821
lowerback  -8.484279633 -1.000629902 -0.6854707003
upperback  -4.025219917 -0.8333669901 -2.977760077
thorax  0.5569519997 -0.2604010105 -2.760479927
lowerneck  -13.2269001 -7.159490108 -6.025499821
upperneck  21.97019958 -9.782011032 7.699580193
head  9.839269638 -3.911780119 2.484730005
lclavicle  0 -4.497500157e-015 -2.743230041e-014
lhumerus  -48.2112999 29.17429924 64.41799927
lradius  0.007069340441 -6.507048965e-006 30.57069778
lwrist  4.824992743e-007 -3.790274832e-007 -27.58959961
lhand  -4.405300586e-031 -36.72040176 -10.72439957
lfingers  90 7.125020027 -90
lthumb  94.74225044 -25.56571091 100.8814038
rclavicle  0 -4.497500157e-015 -2.743230041e-014
rhumerus  -54.83300018 -36.25680161 -49.23690033
rradius  -5.16745672e-007 2.214343908e-008 55.5163002
rwrist  -2.867388866e-005 0.0111028729 -162.8939972
rhand  -1.775242907e-031 5.986219883 -7.881830215
rfingers  -90 -7.125020027 -90
rthumb  -84.88329923 -8.341505645 -58.31643225
rfemur  -12.9615593 16.11592102 12.34662533
rtibia  -0.9819367528 -1.487187982 20.88955498
rfoot  0.5193888545 -22.8891468 -34.31851578
rtoes  4.099939364 19.59211694 -102.066185
lfemur  -8.485355377 -16.16988182 -20.50982285
ltibia  2.170982361 -1.3734622 15.15328026
lfoot  0.8183200955 -22.97485161 38.04199219
ltoes  -8.506763157 -18.16811184 -115.6267749
356
root  34.88750308 36.51902206 -14.80596948 8.799106598 -7.104097366 3.611843586
lowerback  -8.487029076 -0.9842049479 -0.6609429717
upperback  -4.021890163 -0.8135129809 -2.981780052
thorax  0.5622720122 -0.2509349883 -2.776809931
lowerneck  -13.21199989 -7.157700062 -6.035210133
upperneck  21.9654007 -9.784290314 7.735680103
head  9.850248337 -3.910277843 2.486054182
lclavicle  0 -4.497500157e-015 -2.743230041e-014
lhumerus  -48.19430161 29.13190079 64.41619873
lradius  0.007069340441 -6.507048965e-006 30.53009987
lwrist  4.824992743e-007 -3.790274832e-007 -27.67210007
lhand  -4.405300586e-031 -36.72040176 -10.72439957
lfingers  90 7.125020027 -90
lthumb  94.74225044 -25.56571091 100.8814038
rclavicle  0 -4.497500157e-015 -2.743230041e-014
rhumerus  -54.75630188 -36.95760345 -48.90179443
rradius  -5.16745672e-007 2.214343908e-008 53.36869812
rwrist  -2.867388866e-005 0.0111028729 -162.5980072
rhand  -1.775242907e-031 5.986219883 -7.881830215
rfingers  -90 -7.125020027 -90
rthumb  -84.88329923 -8.341505645 -58.31643225
rfemur  -12.96602917 16.10171127 12.33567619
rtibia  -0.9804285169 -1.49967742 20.90790749
rfoot  0.5187350512 -22.915308 -34.28701782
rtoes  4.099939364 19.59211694 -102.066185
lfemur  -8.463540077 -16.1634922 -20.53683662
ltibia  2.198642731 -1.382897854 15.10654736
lfoot  0.8027166128 -22.92560005 38.01055145
ltoes  -8.506763157 -18.16811184 -115.6267749
357
root  34.88693838 36.5179948 -14.80374674 8.795196533 -7.056717873 3.598450422
lowerback  -8.49477005 -0.9796569347 -0.680229187
upperback  -4.011149883 -0.8063780069 -2.981534004
thorax  0.5783789754 -0.2473140061 -2.760119915
lowerneck  -13.23130035 -7.172339916 -6.037360191
upperneck  21.96587563 -9.800459862 7.717229843
head  9.846858978 -3.918526888 2.489794493
lclavicle  0 -4.497500157e-015 -2.743230041e-014
lhumerus  -48.1792984 29.10580063 64.44629669
lradius  0.007069340441 -6.507048965e-006 30.51859856
lwrist  4.824992743e-007 -3.790274832e-007 -27.70150185
lhand  -4.405300586e-031 -36.72040176 -10.72439957
lfingers  90 7.125020027 -90
lthumb  94.74225044 -25.56571091 100.8814038
rclavicle  0 -4.497500157e-015 -2.743230041e-014
rhumerus  -54.70869827 -37.61819839 -48.61029816
rradius  -5.16745672e-007 2.214343908e-008 51.45899963
rwrist  -2.867388866e-005 0.0111028729 -161.3670044
rhand  -1.775242907e-031 5.986219883 -7.881830215
rfingers  -90 -7.125020027 -90
rthumb  -84.88329923 -8.341505645 -58.31643225
rfemur  -12.92777443 16.15655899 12.34923649
rtibia  -0.9782239199 -1.467874289 20.86823654
rfoot  0.530841589 -22.84903908 -34.34994125
rtoes  4.099939364 19.59211694 -102.066185
lfemur  -8.437562943 -16.19071198 -20.529356
ltibia  2.210308552 -1.3622545 15.08531475
lfoot  0.8110970259 -22.95489311 38.02937317
ltoes  -8.506763157 -18.16811184 -115.6267749
